<?xml version="1.0" encoding="UTF-8" standalone="no"?>
<svg
   xmlns:dc="http://purl.org/dc/elements/1.1/"
   xmlns:cc="http://creativecommons.org/ns#"
   xmlns:rdf="http://www.w3.org/1999/02/22-rdf-syntax-ns#"
   xmlns:svg="http://www.w3.org/2000/svg"
   xmlns="http://www.w3.org/2000/svg"
   xmlns:sodipodi="http://sodipodi.sourceforge.net/DTD/sodipodi-0.dtd"
   xmlns:inkscape="http://www.inkscape.org/namespaces/inkscape"
   version="1.1"
   id="Layer_1"
   x="0px"
   y="0px"
   width="32"
   height="32"
   viewBox="360 -720 2304 3110.4"
   enable-background="new 0 0 7200 7200"
   xml:space="preserve"
   inkscape:version="0.91 r13725"
   sodipodi:docname="icon.svg"><metadata
     id="metadata16"><rdf:RDF><cc:Work
         rdf:about=""><dc:format>image/svg+xml</dc:format><dc:type
           rdf:resource="http://purl.org/dc/dcmitype/StillImage" /><dc:title></dc:title></cc:Work></rdf:RDF></metadata><defs
     id="defs14" /><sodipodi:namedview
     pagecolor="#ffffff"
     bordercolor="#666666"
     borderopacity="1"
     objecttolerance="10"
     gridtolerance="10"
     guidetolerance="10"
     inkscape:pageopacity="0"
     inkscape:pageshadow="2"
     inkscape:window-width="1920"
     inkscape:window-height="1059"
     id="namedview12"
     showgrid="true"
     showguides="false"
     inkscape:zoom="1"
     inkscape:cx="19.275683"
     inkscape:cy="24.311262"
     inkscape:window-x="-8"
     inkscape:window-y="-8"
     inkscape:window-maximized="1"
     inkscape:current-layer="Layer_1"><inkscape:grid
       type="xygrid"
       id="grid3344" /></sodipodi:namedview><g
     id="YbGLpz_1_"
     transform="matrix(0.40855739,0,0,0.40855739,119.52617,-592.24381)"><g
       id="g4"><path
         d="m 3200.946,28.625 c 167.087,106.14 1546.726,1473.54 1552.371,1881.715 4.426,320.021 -441.869,618.695 -609.518,885.867 -186.52,297.583 -408.817,644.781 -319.658,1043.911 140.243,627.81 753.492,1378.809 1080.915,1936.656 -665.577,-211.418 -1773.725,-233.726 -1704.11,760.695 18.09,258.407 204.676,396.255 334.601,608.243 C 3173.64,6939.072 2463.222,6597.789 2353.852,6065.836 2160.3,5132.277 2806.507,4948.706 3627.31,4886.211 3477.817,4657.043 3322.572,4381.506 3109.171,4073.796 2927.439,3810.426 2612.832,3430.354 2622.544,3100.687 2639.578,2562.262 3373.366,2054.602 3506.667,1427.767 3625.477,867.811 3397.884,547.481 3200.946,28.625 Z"
         id="path6"
         inkscape:connector-curvature="0"
         style="clip-rule:evenodd;fill-rule:evenodd" /></g></g></svg>